# xmcd CD database file
#
# Track frame offsets:
#	150
#	25785
#	46640
#	78578
#
# Disc length: 1387 seconds
#
# Revision: 6
# Processed by: cddbd v1.5.2PL0 Copyright (c) Steve Scherf et al.
# Submitted via: CDex 1.70beta3
#
DISCID=21056904
DTITLE=KOKIA - 愛のメロディー
DYEAR=2005
DGENRE=JPop
TTITLE0=愛のメロディー (orignal ver.)
TTITLE1=調和oto ～with reflection～
TTITLE2=愛のメロディー (soundtrack ver.)
TTITLE3=愛のメロディー (instrumental)
EXTD=YEAR: 2005
EXTT0=
EXTT1=
EXTT2=
EXTT3=
PLAYORDER=
